<svg xmlns="http://www.w3.org/2000/svg" width="24" height="24" viewBox="0 0 24 24" fill="none" stroke="currentColor" stroke-width="2" stroke-linecap="round" stroke-linejoin="round">
  <rect x="3" y="3" width="18" height="18" rx="2" ry="2"/>
  <line x1="9" y1="3" x2="9" y2="21"/>
  <line x1="15" y1="3" x2="15" y2="21"/>
  <line x1="3" y1="9" x2="21" y2="9"/>
  <line x1="3" y1="15" x2="21" y2="15"/>
  <path d="M7 7h2v2H7z"/>
  <path d="M11 7h2v2h-2z"/>
  <path d="M15 7h2v2h-2z"/>
  <path d="M7 11h2v2H7z"/>
  <path d="M11 11h2v2h-2z"/>
  <path d="M15 11h2v2h-2z"/>
  <path d="M7 15h2v2H7z"/>
  <path d="M11 15h2v2h-2z"/>
  <path d="M15 15h2v2h-2z"/>
</svg> 